<svg width="27.000000" height="27.000000" viewBox="0 0 27 27" fill="none" xmlns="http://www.w3.org/2000/svg" xmlns:xlink="http://www.w3.org/1999/xlink">
	<desc>
			Created with Pixso.
	</desc>
	<defs/>
	<path id="Vector" d="M13.5 7.94L17.1 9.33C16.38 8.5 15.04 7.94 13.5 7.94C11.19 7.94 9.33 9.18 9.33 10.72C9.33 12.25 11.19 13.5 13.5 13.5C15.8 13.5 17.66 14.74 17.66 16.27C17.66 17.81 15.8 19.05 13.5 19.05C11.95 19.05 10.61 18.49 9.89 17.66L13.5 19.05M13.5 19.05L13.5 7.94M13.5 7.94L13.5 6.55L13.5 7.94M13.5 7.94L13.5 19.05M13.5 19.05L13.5 20.44L13.5 19.05M25.04 18.28C24.42 19.8 23.49 21.17 22.33 22.33C21.17 23.49 19.8 24.42 18.28 25.04C16.76 25.67 15.14 26 13.5 26C11.85 26 10.23 25.67 8.71 25.04C7.19 24.42 5.82 23.49 4.66 22.33C3.5 21.17 2.57 19.8 1.95 18.28C1.32 16.76 1 15.14 1 13.5C1 10.18 2.31 7 4.66 4.66C7 2.31 10.18 1 13.5 1C16.81 1 19.99 2.31 22.33 4.66C24.68 7 26 10.18 26 13.5C26 15.14 25.67 16.76 25.04 18.28Z" stroke="#9494A0" stroke-opacity="1.000000" stroke-width="2.000000" stroke-linejoin="round"/>
</svg>
