<svg width="25.000000" height="25.000000" viewBox="0 0 25 25" fill="none" xmlns="http://www.w3.org/2000/svg" xmlns:xlink="http://www.w3.org/1999/xlink">
	<desc>
			Created with Pixso.
	</desc>
	<defs/>
	<path id="Union" d="M22.5 20L7.5 20C6.83698 20 6.20105 19.7366 5.73224 19.2678C5.26337 18.7989 5 18.163 5 17.5L5 2.5C5 1.83696 5.26337 1.20107 5.73224 0.732231C6.20105 0.263393 6.83698 0 7.5 0L22.5 0C23.163 0 23.799 0.263393 24.2678 0.732231C24.7366 1.20107 25 1.83696 25 2.5L25 17.5C25 18.163 24.7366 18.7989 24.2678 19.2678C23.799 19.7366 23.163 20 22.5 20ZM7.5 2.5L7.5 17.5L22.5 17.5L22.5 2.5L7.5 2.5ZM12.3438 9.16625C11.5675 9.16625 10.9375 8.51375 10.9375 7.70875C10.9375 6.9025 11.5675 6.25 12.3438 6.25C13.12 6.25 13.75 6.9025 13.75 7.70875C13.75 8.51375 13.12 9.16625 12.3438 9.16625ZM0 7.5L2.5 7.5L2.5 22.5L17.5 22.5L17.5 25L2.5 25C1.83698 25 1.20105 24.7366 0.732239 24.2678C0.263367 23.7989 0 23.163 0 22.5L0 7.5ZM21.25 15L10 15L12.8125 11.1112L13.75 12.0825L16.5625 8.195L21.25 15Z" clip-rule="evenodd" fill="#9494A0" fill-opacity="1.000000" fill-rule="evenodd"/>
</svg>
