<svg width="23.000000" height="34.000000" viewBox="0 0 23 34" fill="none" xmlns="http://www.w3.org/2000/svg" xmlns:xlink="http://www.w3.org/1999/xlink">
	<desc>
			Created with Pixso.
	</desc>
	<defs/>
	<path id="Vector" d="M3.1 6.22C1.44 6.22 0.08 4.78 0.08 3.02C0.09 1.33 1.48 0 3.26 0L3.26 0C3.66 0 4.06 0.08 4.44 0.23C4.81 0.39 5.15 0.62 5.43 0.91C5.72 1.2 5.94 1.54 6.09 1.92C6.24 2.29 6.32 2.69 6.31 3.1C6.3 4.85 4.9 6.22 3.1 6.22ZM0 14.98C0 15.32 0 15.65 0 15.98C-0.01 16.94 -0.01 17.89 0.02 18.84C0.06 19.86 0.06 20.88 0.14 21.9C0.21 22.78 0.36 23.65 0.6 24.5C0.91 25.64 1.39 26.72 2.03 27.71C2.61 28.6 3.33 29.37 4.03 30.15C4.61 30.79 5.27 31.34 6 31.79C7.1 32.49 8.28 33.03 9.52 33.41C10.38 33.68 11.27 33.86 12.17 33.94C13.11 34.03 14.07 34.01 15.01 33.88C16.2 33.72 17.36 33.39 18.45 32.91C19.18 32.57 19.89 32.18 20.57 31.76C21.23 31.38 21.83 30.9 22.34 30.33C22.47 30.2 22.55 30.07 22.34 29.93C22.28 29.87 22.22 29.81 22.17 29.73L18.33 25.9L18.33 25.89C18.08 25.65 18.08 25.64 17.84 25.9C17.03 26.75 15.97 27.32 14.82 27.52C13.64 27.76 12.43 27.69 11.28 27.34C10.07 27 8.98 26.32 8.13 25.39C7.39 24.55 6.87 23.55 6.61 22.47C6.44 21.68 6.36 20.87 6.38 20.07C6.38 19.34 6.4 18.61 6.41 17.88C6.41 17.54 6.42 17.21 6.42 16.87C6.45 15.52 6.48 14.17 6.27 12.82C6.13 11.88 5.78 10.98 5.24 10.2C4.77 9.51 4.16 8.94 3.45 8.52C2.49 7.97 1.41 7.65 0.31 7.6C0.16 7.59 0.1 7.63 0.1 7.79C0.08 9.04 0.04 10.29 0.03 11.54C0 12.47 0 13.41 0 14.34C0 14.55 0 14.77 0 14.98ZM7.47 16.89C7.69 16.67 7.89 16.48 8.08 16.29C8.67 15.68 9.28 15.09 10.03 14.68C11.31 13.99 12.79 13.73 14.23 13.96C15.53 14.11 16.75 14.67 17.71 15.56L17.72 15.56C18.04 15.87 18.04 15.87 18.38 15.57C19.8 14.32 21.08 12.94 22.4 11.58C22.51 11.47 22.46 11.41 22.38 11.33L22.38 11.33C21.65 10.53 20.8 9.86 19.86 9.33C18.23 8.44 16.44 7.89 14.6 7.71C12.54 7.5 10.51 7.64 8.56 8.34C7.75 8.62 7.01 9.04 6.36 9.58C6.33 9.6 6.31 9.62 6.29 9.64C6.27 9.66 6.26 9.69 6.25 9.72C6.25 9.75 6.25 9.78 6.25 9.8C6.26 9.83 6.27 9.86 6.28 9.88C6.37 10.06 6.44 10.25 6.53 10.43C7.08 11.41 7.4 12.51 7.44 13.63C7.46 14.17 7.46 14.7 7.46 15.24L7.46 15.24L7.46 15.36L7.47 16.89Z" fill="#32C076" fill-opacity="1.000000" fill-rule="evenodd"/>
</svg>
