<svg width="25.000000" height="23.000000" viewBox="0 0 25 23" fill="none" xmlns="http://www.w3.org/2000/svg" xmlns:xlink="http://www.w3.org/1999/xlink">
	<desc>
			Created with Pixso.
	</desc>
	<defs/>
	<path id="Vector" d="M7.49 9.99L7.49 12.49L18.75 12.49L18.75 16.24L25 11.24L18.75 6.24L18.75 9.99L7.49 9.99Z" fill="#9494A0" fill-opacity="1.000000" fill-rule="nonzero"/>
	<path id="Vector" d="M2.49 22.5L13.75 22.5C15.12 22.5 16.25 21.37 16.25 20L16.25 15L13.75 15L13.75 20L2.49 20L2.49 2.49L13.75 2.49L13.75 7.49L16.25 7.49L16.25 2.49C16.25 1.12 15.12 -9.16e-5 13.75 -9.16e-5L2.49 -9.16e-5C1.12 -9.16e-5 -6.11e-5 1.12 -6.11e-5 2.49L-6.11e-5 20C-6.11e-5 21.37 1.12 22.5 2.49 22.5Z" fill="#9494A0" fill-opacity="1.000000" fill-rule="nonzero"/>
</svg>
