<svg width="25.000000" height="25.000000" viewBox="0 0 25 25" fill="none" xmlns="http://www.w3.org/2000/svg" xmlns:xlink="http://www.w3.org/1999/xlink">
	<desc>
			Created with Pixso.
	</desc>
	<defs/>
	<path id="Vector" d="M17.7 0C15.84 0 14.14 0.35 12.82 1C11.5 1.66 10.41 2.74 10.41 4.16L10.41 8.33C10.41 8.46 10.46 8.59 10.48 8.72C9.43 8.45 8.36 8.32 7.29 8.33C5.42 8.33 3.73 8.68 2.4 9.34C1.08 10 0 11.07 0 12.5L0 20.83C0 22.25 1.08 23.33 2.4 23.99C3.73 24.65 5.42 25 7.29 25C9.15 25 10.85 24.65 12.17 23.99C13.49 23.33 14.58 22.25 14.58 20.83L14.58 20.41C15.6 20.68 16.65 20.82 17.7 20.83C19.57 20.83 21.26 20.48 22.59 19.82C23.91 19.16 25 18.09 25 16.66L25 4.16C25 2.74 23.91 1.66 22.59 1C21.26 0.35 19.57 0 17.7 0ZM17.7 2.08C19.29 2.08 20.7 2.42 21.64 2.89C22.58 3.36 22.91 3.86 22.91 4.16C22.91 4.46 22.58 4.96 21.64 5.43C20.7 5.9 19.29 6.25 17.7 6.25C16.12 6.25 14.7 5.9 13.76 5.43C12.82 4.96 12.5 4.46 12.5 4.16C12.5 3.86 12.82 3.36 13.76 2.89C14.7 2.42 16.12 2.08 17.7 2.08ZM12.5 7.12C12.6 7.18 12.71 7.26 12.82 7.32C14.14 7.98 15.84 8.33 17.7 8.33C19.57 8.33 21.26 7.98 22.59 7.32C22.7 7.26 22.8 7.18 22.91 7.12L22.91 8.33C22.91 8.63 22.58 9.13 21.64 9.6C20.7 10.07 19.29 10.41 17.7 10.41C16.12 10.41 14.7 10.07 13.76 9.6C12.82 9.13 12.5 8.63 12.5 8.33L12.5 7.12ZM7.29 10.41C8.87 10.41 10.29 10.75 11.23 11.23C12.17 11.7 12.5 12.19 12.5 12.5C12.5 12.8 12.17 13.29 11.23 13.76C10.29 14.24 8.87 14.58 7.29 14.58C5.7 14.58 4.29 14.24 3.35 13.76C2.41 13.29 2.08 12.8 2.08 12.5C2.08 12.19 2.41 11.7 3.35 11.23C4.29 10.75 5.7 10.41 7.29 10.41ZM22.91 11.29L22.91 12.5C22.91 12.8 22.58 13.29 21.64 13.76C20.7 14.24 19.29 14.58 17.7 14.58C16.64 14.58 15.59 14.42 14.58 14.09L14.58 12.5C14.58 12.36 14.53 12.23 14.51 12.1C15.48 12.36 16.56 12.5 17.7 12.5C19.57 12.5 21.26 12.15 22.59 11.49C22.7 11.43 22.8 11.35 22.91 11.29ZM2.08 15.46C2.19 15.52 2.29 15.6 2.4 15.65C3.73 16.31 5.42 16.66 7.29 16.66C9.15 16.66 10.85 16.31 12.17 15.65C12.28 15.6 12.39 15.52 12.5 15.46L12.5 16.66C12.5 16.96 12.17 17.46 11.23 17.93C10.29 18.4 8.87 18.75 7.29 18.75C5.7 18.75 4.29 18.4 3.35 17.93C2.41 17.46 2.08 16.96 2.08 16.66L2.08 15.46ZM22.91 15.46L22.91 16.66C22.91 16.96 22.58 17.46 21.64 17.93C20.7 18.4 19.29 18.75 17.7 18.75C16.52 18.75 15.45 18.58 14.58 18.29L14.58 16.27C15.53 16.52 16.58 16.66 17.7 16.66C19.57 16.66 21.26 16.31 22.59 15.65C22.7 15.6 22.8 15.52 22.91 15.46ZM2.08 19.62C2.19 19.68 2.29 19.76 2.4 19.82C3.73 20.48 5.42 20.83 7.29 20.83C9.15 20.83 10.85 20.48 12.17 19.82C12.28 19.76 12.39 19.68 12.5 19.62L12.5 20.83C12.5 21.13 12.17 21.63 11.23 22.1C10.29 22.57 8.87 22.91 7.29 22.91C5.7 22.91 4.29 22.57 3.35 22.1C2.41 21.63 2.08 21.13 2.08 20.83L2.08 19.62Z" fill="#9494A0" fill-opacity="1.000000" fill-rule="nonzero"/>
</svg>

