<svg width="25.000000" height="25.000000" viewBox="0 0 25 25" fill="none" xmlns="http://www.w3.org/2000/svg" xmlns:xlink="http://www.w3.org/1999/xlink">
	<desc>
			Created with Pixso.
	</desc>
	<defs/>
	<path id="Vector" d="M17.04 9.09C17.04 10.29 16.56 11.45 15.71 12.3C14.86 13.15 13.7 13.63 12.5 13.63C11.29 13.63 10.13 13.15 9.28 12.3C8.43 11.45 7.95 10.29 7.95 9.09C7.95 7.88 8.43 6.72 9.28 5.87C10.13 5.02 11.29 4.54 12.5 4.54C13.7 4.54 14.86 5.02 15.71 5.87C16.56 6.72 17.04 7.88 17.04 9.09ZM14.77 9.09C14.77 9.69 14.53 10.27 14.1 10.69C13.68 11.12 13.1 11.36 12.5 11.36C11.89 11.36 11.31 11.12 10.89 10.69C10.46 10.27 10.22 9.69 10.22 9.09C10.22 8.48 10.46 7.91 10.89 7.48C11.31 7.05 11.89 6.81 12.5 6.81C13.1 6.81 13.68 7.05 14.1 7.48C14.53 7.91 14.77 8.48 14.77 9.09Z" fill="#9494A0" fill-opacity="1.000000" fill-rule="evenodd"/>
	<path id="Vector" d="M12.5 0C5.59 0 0 5.59 0 12.5C0 19.4 5.59 25 12.5 25C19.4 25 25 19.4 25 12.5C25 5.59 19.4 0 12.5 0ZM2.27 12.5C2.27 14.87 3.08 17.06 4.44 18.79C5.39 17.54 6.62 16.53 8.03 15.83C9.44 15.13 10.99 14.77 12.57 14.77C14.12 14.77 15.66 15.12 17.05 15.8C18.45 16.48 19.67 17.47 20.63 18.7C21.61 17.41 22.28 15.9 22.56 14.3C22.85 12.7 22.75 11.06 22.28 9.51C21.8 7.95 20.96 6.53 19.83 5.37C18.7 4.21 17.31 3.33 15.77 2.81C14.23 2.29 12.59 2.14 10.98 2.38C9.38 2.62 7.85 3.24 6.53 4.19C5.21 5.13 4.14 6.38 3.4 7.83C2.65 9.27 2.27 10.87 2.27 12.5ZM12.5 22.72C10.15 22.73 7.87 21.92 6.05 20.44C6.78 19.39 7.76 18.53 8.89 17.94C10.03 17.35 11.29 17.04 12.57 17.04C13.83 17.04 15.08 17.34 16.2 17.92C17.33 18.49 18.3 19.33 19.03 20.36C17.2 21.89 14.88 22.73 12.5 22.72Z" fill="#9494A0" fill-opacity="1.000000" fill-rule="evenodd"/>
</svg>
