<svg width="17.000000" height="16.000000" viewBox="0 0 17 16" fill="none" xmlns="http://www.w3.org/2000/svg" xmlns:xlink="http://www.w3.org/1999/xlink">
	<desc>
			Created with Pixso.
	</desc>
	<defs/>
	<path id="Vector" d="M11.46 10.31L15.76 14.62C15.91 14.77 16 14.97 16 15.19C16 15.4 15.91 15.61 15.76 15.76C15.61 15.91 15.4 16 15.19 16C14.97 15.99 14.77 15.91 14.62 15.76L10.31 11.45C9.03 12.45 7.41 12.92 5.79 12.77C4.17 12.61 2.67 11.85 1.59 10.63C0.52 9.4 -0.05 7.82 0 6.19C0.05 4.57 0.72 3.02 1.87 1.87C3.02 0.72 4.57 0.05 6.19 0C7.82 -0.05 9.4 0.52 10.63 1.59C11.85 2.67 12.61 4.17 12.77 5.79C12.92 7.41 12.45 9.03 11.45 10.31L11.46 10.31ZM6.4 11.19C7.67 11.19 8.89 10.69 9.79 9.79C10.69 8.89 11.2 7.67 11.2 6.39C11.2 5.12 10.69 3.9 9.79 3C8.89 2.1 7.67 1.59 6.4 1.59C5.12 1.59 3.9 2.1 3 3C2.1 3.9 1.6 5.12 1.6 6.39C1.6 7.67 2.1 8.89 3 9.79C3.9 10.69 5.12 11.19 6.4 11.19Z" fill="#9494A0" fill-opacity="1.000000" fill-rule="evenodd"/>
</svg>
